/* XPM */
static char *_09e3bc6a2214a438841c70893c9a461Ca303RdNGt4YRpJY[] = {
/* columns rows colors chars-per-pixel */
"96 96 41 1 ",
"  c black",
". c #ED1B24",
"X c #040202",
"o c #F11C25",
"O c #170506",
"+ c #E31C25",
"@ c #0D0303",
"# c #6E1D1F",
"$ c #3B0E0F",
"% c #320B0C",
"& c #210708",
"* c #4F1516",
"= c #480E10",
"- c #57191B",
"; c #631A1B",
": c #7D2022",
"> c #8C2426",
", c #2A0B0C",
"< c #D51C24",
"1 c #9C2629",
"2 c #C91A21",
"3 c #720F14",
"4 c #5A0C10",
"5 c #101010",
"6 c #3E1617",
"7 c #B8191F",
"8 c #AD282B",
"9 c #EE272F",
"0 c #1B1616",
"q c #0B0A0A",
"w c #A3161C",
"e c #941319",
"r c #BA2C2F",
"t c #922E2F",
"y c #A93133",
"u c #821217",
"i c #EF363E",
"p c #C2393C",
"a c #72292B",
"s c #CC3035",
"d c #E1282F",
/* pixels */
"                                                                                                ",
"                                                                                                ",
"                                                                                                ",
"                                                                                                ",
"                                                                                                ",
"                                                                                                ",
"                                                                                                ",
"                                                                                                ",
"                                                                                                ",
"                                                                                                ",
"                                                                                                ",
"                                                                                                ",
"                                                                                                ",
"                                                                                                ",
"                                                                                                ",
"                                                                                                ",
"                                                                                                ",
"                                                                                                ",
"                                                                                                ",
"                                                                                                ",
"                                                                                                ",
"                                                                                                ",
"                                                                                                ",
"  X                                               X                                             ",
"   X                                               X                                            ",
"    X                                               X                                           ",
"     X                                  X            X                                  X       ",
"      X                                50X            X                                50q      ",
"       X                              X00q             X                            @&&005      ",
"        X                            5005X              X                      XO%;:1a-05X      ",
"         X                          q00q                 X              XX@,*-;->:1srta5        ",
"          X                        q5q5X                  X        X@&$*;##111811>>#-#-q        ",
"           X                     X5q5X                     X  X@&O=:>>188r8>>#-**$600;8,        ",
"            X                   X555qX                   @O%$6*#1#8r8881:#=$$,@@@555q$:,        ",
"             X                  qq5qX              X@O%-:18r1t1rr81:##$&,&X@@X@O6;>6X&%$        ",
"              X               Xq550q          XO&$$;:#8r8>r81>>::#a-$&X X@&O 47<d99: ==*X       ",
"               X              qq55qX      @&,6;;###1y::>#;;;;;-*,O@  O=3e7<e 399999w =:>O       ",
"                X           Xq5q   X@@,$&,:>#;1t#-#=$%$%%$%&OOO&O@   =+oooo7@*99..o7@$tr%       ",
"                 X          qq00&%*:#6>>#->t##:#*--OXOX  @%3w72<274X %+....<,%s9...<&&>r$       ",
"                  X      XO%--a>>>ttt:#:-,,*$-*,OOXX   @47+oooo..o+4 O2....+*58o...+=@:1-       ",
"                   XXO$=*;:>1yy1#>**;;=%@O@O@XXO%4ue& @e+o..2w+..+ow Xwo....3-2....o3 *1>       ",
"              X XO$;#1r1:#::-:-$&6&X&%@X @&& @u2+.o.= =+...+$@7.+<2uX uo....++..+..oe =>#       ",
"         XXXO$;;#>>:t>tta;=--$O@@@    O3e7<wXXwo...o3 3....+4 43=%OX  ;9i9+...o+<...7X%-:O      ",
"    XOO%*;=;>11:#=*-##a-065@@ XO%4u4  $+ooo2O uo...oe 4..++9<u4$OX   q-+9id..<2+...+2O@*>%      ",
"    O;;:8r;-;=$,%O**$605q06%X 32+.o<$ &<...<% 4....o7@&<o++.o++27w3%X0%<9ii.+=&2....+%@;#*      ",
"    X=:;-#*O@X O&XXXX0-a1ps2O 3o...o7&@7o...4 %+....2& 4<oo..+<2+oo<300r9ii..=X7o....4X;*#X     ",
"     -#%O,&   XO%4uw40piii9+% =......w@eo.+.3 O2....+$  ,3e7<.oo...o<60yiii.o3 eo...ou ->>@     ",
"     %;6@ O%4uw2++++u@riii..4 %+......339.+ow Xw+....4     O$4e<....ou0tii..oe 3....owX$y8O     ",
"     &**O *7+ooo<w7+w@eo...ou O2......<w+..o7@ 3..+.ou X&=3e74 4+...oe =8w..o7@=.o.+2eX,18%     ",
"     &-$O 4...<<7:3=& 3....owXXwo.....<+....<& 4....owXOrd.ooe O299.2u &7+ooo<&Oeu4%OX &:8*     ",
"     X$%, =++27+200X  =+...o2O uo...........+= $+...+2O@7o+..2=4<iis#$ O7<7e3=@   XO&**##r#     ",
"     X**$ &w2+.9d60O&X&<....<,X4....<<.......3 &<....+% 3o....<rsii8=X X,&@ X@,%$*#;-;#>8r1X    ",
"      =-*@@7o.9ii1w22,@7o....= $+...23+.9...oe @7o....4 Ow+.<8sss8;O   XO,6-###::>>ty>8811:@    ",
"      ,:;O wo99i9ooo.= wo...o3 &<o..+%u......7@ e.++.o3  @$4=;;-6q @&,%6###>:#;rss>:>-;-%,@     ",
"      O#$& u9dd9o.<2w$ 3....oe @7o...=@7o....2O 3o.+274     q006--$$;*;atyyppppyt:*,OXX         ",
"      O8#$ -999..2%OX  4....o7@ eo..o3 %<oooo+% %u4%OX  XO,-a-6;:#>y1>1yyyyt:*$&@XX             ",
"      @>16q6d9...2O    %+....<& 3..oowX 427e3=@  XX@%6=%%$*-at18ptrs8-%$%,OX       X            ",
"       #y;0&so...+$    O2.+..+$ =..+<eX XO@  @&=$$,6#;;*66aypyr8>:-6&X              X           ",
"       ;pa658o....4    Xwo<.o.4 &34%O@X@O,6**$%=*;#181:ttyyta*%OX                    X          ",
"       $p>6Xeo+.+<u     u<7e3=O  X@O%*;-%66-##;>8rr>--**-,0q                          X         ",
"      q6pt* 4...+owX    O&@XXO,$$*-=$,6*;:>81:;-*%%&@@q50q                             X        ",
"     X5Oyt* $<+2wu=   X@&%=$=-*=$$##>>18y:$%OO@X     X5X5X                              X       ",
"      55>1=X@=%OX XO%$*##-66&*>1rr811:=,&@            55q                                X      ",
"      Xq=:%XXXO&,*,$6$6;-*#11rr8>#$OO@   XX            qX                                XX     ",
"        %;==*$$6$,@,&,->:#:>#*&OX         XX                                              XX    ",
"        %#,-#6*;6-*::*-;=,@X               XX                                               X   ",
"        O:;;>###:$%,O@X                                                                         ",
"        X#:=%O&O@                                                                               ",
"         OOX                                                                                    ",
"                                                                                                ",
"                                                                                                ",
"  X                                               X                                             ",
"  XX                                              XX                                            ",
"   XX                                              XX                                           ",
"    XX                                              XX                                          ",
"                                                                                                ",
"                                                                                                ",
"                                                                                                ",
"                                                                                                ",
"                                                                                                ",
"                                                                                                ",
"                                                                                                ",
"                                                                                                ",
"                                                                                                ",
"                                                                                                ",
"                                                                                                ",
"                                                                                                ",
"                                                                                                ",
"                                                                                                ",
"                                                                                                ",
"                                                                                                ",
"                                                                                                ",
"                                                                                                ",
"                                                                                                ",
"                                                                                                ",
"                                                                                                "
};
