/* XPM */
static char *e1e5066c904d45ed92b07cd6bce19304u3AUNFIfAhJOeST6[] = {
/* columns rows colors chars-per-pixel */
"96 96 2 1 ",
"  c black",
". c #040502",
/* pixels */
"                                                                                                ",
"                                                                                                ",
"                                                                                                ",
"                                                                                                ",
"                                                                                                ",
"                                                                                                ",
"                                                                                                ",
"                                                                                                ",
"                                                                                                ",
"                                                                                                ",
"                                                                                                ",
"                                                                                                ",
"                                                                                                ",
"                                                                                                ",
"                                                                                                ",
"                                                                                                ",
"                                                                                                ",
"                                                                                                ",
"                                                                                                ",
"                                                                                                ",
"                                                                                                ",
"            .    .           .       ..   .  .     ..      . .     ....       ..                ",
"                 .         .     .        ..  ..   .. .  ..    .   ....  .     .   .      ..    ",
"                        .                           ... ..    .. .. .  ....  .                  ",
"                  .       .            .     .  ..  ..   .   ........  ..    .                  ",
"                      .       .   .           . ..   .. ..... ......  ..    . ..                ",
"        .           ..                     .. ..   ....... . ....... ...   ..          .        ",
"          .            ...   .         .  ..  .    ...............     .  .      ..             ",
"    ..                             ..  .... .... . .. ............     ..         ..            ",
"                                   ..    . ...  ... .. ...... .. .....  ...  .       ..         ",
"              .                      ..    .. .. .. .. .. ........ ........ .    ..  . .        ",
"                    .                   .. .. ...   ......... .... .  ..                        ",
"        .           .       .        ......   .... ............. . ..  ...     .     ..         ",
"                  ..       ...     .... ...  .    .. ........................  .  . ..          ",
"             .             .       ..    ..  ...... ...................... ...      .           ",
" .                                  . .  .  .  .... .............. ....... .    .  ..           ",
"     .       ..             .  ..     . . ...  ................ .. ...... .   .       .         ",
"     ..                 .      .      .    . ................. ..... .... .   ..             .  ",
"               .        ..             ....   .......................  .. ...                   ",
"                           .           ....   . .............. ....  ....  .. .                 ",
"                         . .       ..       .................... .. ......  .        .          ",
"             .              .    .. .     . ........................  ..  ..                    ",
"                              .   .  . .  ........................ .. ..  .     ..              ",
"                       .     .    . .      ................... .... .... .   .       .          ",
"   ..                   . . ..     . ...  .. .............. .......   ..                 .      ",
"                .  .    . .       .  . ......................... ...  ..  ..       . ..   .     ",
"           .    .                 .. . ...................... .. .... .  ... .       ..  .      ",
"              .              ....  .  ......................  .. ....... ... . .           .    ",
"    .                     .     . .  .......................  . ..  ..... .  .    .             ",
"                   .          ..  .... ......................   ..  .. . ..  .. ...             ",
"       .         .. .   . ..  ..   .... ............................ ...    . .  .              ",
"    .  .         ...  ..  ..    ..     ........................... . ..    ..             ..    ",
"      .       ..       .   .  .  .  .    ...................... .. . .        .        ..       ",
"      .        .         ..          .. .................................    ...   .     .      ",
"               ..   .       . ..  .. .......................... .... ....  ...        .         ",
"                  ..     .  . .   .  . ............................ ..  . ..   .          .     ",
"                         .....     .. ..............................     ...    .               ",
"    .                  .  ..      ... . ........................... ..     ..                  .",
"    . .                   ..    .. .......................... ......      .                    .",
"                     .  ..         .. .. ...................... ........  . .                   ",
"                     .          . .............................. ... ..  ....  .          ..    ",
"         .                      .   .............. ........... ..  .       .    ..      .       ",
"                                   .......................... .   ..    .      ..    ..         ",
"                            ..    ............................ ...  .....   . .    .            ",
"                 .               .... ............................  ...... ..      .            ",
"                           ..  .....  .......................    .  ...    .    .               ",
"                 .     .        .. . ............................. ... .     .           ..     ",
" ..     .        .           .  ..  ......... ....................     ..  ..      .  ..        ",
"        .           .        ... ... ........................ ......   ..    .     .            ",
"        ..                     .. ...... ........................ .    ...     ..               ",
".                     .        .. ..............................     ... . ..   .               ",
".               .         . ..    .......................... ... ..  ...     .   .              ",
"           .  .     ..    . .  ... ............................ .          .     ..            .",
"           .        .. .    ................................    .      ..  .      .             ",
"  .            .   ..   .   ....  ............................          ..  .                   ",
"                                                ........                                        ",
"                                                                                                ",
"                                                                                                ",
"                                                                                                ",
"                                                                                                ",
"                                                                                                ",
"                                                                                                ",
"                                                                                                ",
"                                                                                                ",
"                                                                                                ",
"                                                                                                ",
"                                                                                                ",
"                                                                                                ",
"                                                                                                ",
"                                                                                                ",
"                                                                                                ",
"                                                                                                ",
"                                                                                                ",
"                                                                                                ",
"                                                                                                ",
"                                                                                                "
};
